<?xml version="1.0" standalone="no"?><!DOCTYPE svg PUBLIC "-//W3C//DTD SVG 1.1//EN" "http://www.w3.org/Graphics/SVG/1.1/DTD/svg11.dtd"><svg t="1546920222787" class="icon" style="" viewBox="0 0 1024 1024" version="1.1" xmlns="http://www.w3.org/2000/svg" p-id="4762" xmlns:xlink="http://www.w3.org/1999/xlink" width="200" height="200"><defs><style type="text/css">html, * { user-select: text !important; }
@font-face { font-family: rbicon; src: url("chrome-extension://dipiagiiohfljcicegpgffpbnjmgjcnf/fonts/rbicon.woff2") format("woff2"); font-weight: normal; font-style: normal; }
</style></defs><path d="M608 567.36l64 36.96V419.68l-64 36.96v110.72zM512 401.12v-73.92l-160 92.48 64 36.8 96-55.36zM416 567.52l-64 36.8 160 92.48v-73.92l-96-55.36z" fill="#FFA42F" p-id="4763"></path><path d="M800 382.72l60.48-35.04-32-55.36L768 327.2l-224-129.28V128h-64v69.92l-224 129.28-60.48-34.88-32 55.36L224 382.72v258.56l-60.48 35.04 32 55.36L256 696.8l224 129.28V896h64v-69.92l224-129.28 60.48 34.88 32-55.36L800 641.28z m-64 258.56l-224 129.44-224-129.44V382.72l224-129.44 224 129.44z" fill="" p-id="4764"></path></svg>